<?xml version="1.0" encoding="UTF-8"?>
<svg width="13px" height="16px" viewBox="0 0 13 16" version="1.1" xmlns="http://www.w3.org/2000/svg" xmlns:xlink="http://www.w3.org/1999/xlink">
    <!-- Generator: Sketch 52.5 (67469) - http://www.bohemiancoding.com/sketch -->
    <title>💚 Icon Copy 6</title>
    <desc>Created with Sketch.</desc>
    <g id="Page-1" stroke="none" stroke-width="1" fill="none" fill-rule="evenodd">
        <g id="banner" transform="translate(-845.000000, -506.000000)" fill="#000000">
            <g id="registro" transform="translate(-50.000000, -41.000000)">
                <g id="Form-Copy-2" transform="translate(833.000000, 181.000000)">
                    <g id="Icons-/-Line-/-Lock" transform="translate(59.000000, 364.000000)">
                        <g id="lock" transform="translate(3.571429, 2.142857)">
                            <path d="M10.1406473,6.11494548 C10.1082401,6.12261947 10.0744356,6.12668083 10.0396825,6.12668083 C9.99953306,6.12668083 9.96064963,6.12126027 9.92372421,6.11111111 L2.18253968,6.11111111 C1.45930966,6.11111111 0.873015873,6.69740491 0.873015873,7.42063492 L0.873015873,13.531746 C0.873015873,14.254976 1.45930966,14.8412698 2.18253968,14.8412698 L10.0396825,14.8412698 C10.7629125,14.8412698 11.3492063,14.254976 11.3492063,13.531746 L11.3492063,7.42063492 C11.3492063,6.73137754 10.8166994,6.16649375 10.1406473,6.11494548 Z M2.61904762,5.23809524 L9.6031746,5.23809524 L9.6031746,4.36507937 C9.6031746,2.43646595 8.03972452,0.873015873 6.11111111,0.873015873 C4.1824977,0.873015873 2.61904762,2.43646595 2.61904762,4.36507937 L2.61904762,5.23809524 Z M10.4761905,5.28175394 C11.4724065,5.48397511 12.2222222,6.36474056 12.2222222,7.42063492 L12.2222222,13.531746 C12.2222222,14.7371294 11.2450659,15.7142857 10.0396825,15.7142857 L2.18253968,15.7142857 C0.977156304,15.7142857 0,14.7371294 0,13.531746 L0,7.42063492 C0,6.36474056 0.749815733,5.48397511 1.74603175,5.28175394 L1.74603175,4.36507937 C1.74603175,1.9543126 3.70034435,0 6.11111111,0 C8.52187783,0 10.4761905,1.9543126 10.4761905,4.36507937 L10.4761905,5.28175394 Z M5.23809524,9.6031746 L5.23809524,9.93663698 C5.23809524,10.5107574 5.3717654,11.0769931 5.62851981,11.590502 L5.86981546,12.0730933 C5.91551348,12.1644893 6.00892722,12.2222222 6.11111111,12.2222222 C6.213295,12.2222222 6.30670875,12.1644893 6.35240676,12.0730933 L6.59370241,11.590502 C6.85045682,11.0769931 6.98412698,10.5107574 6.98412698,9.93663698 L6.98412698,9.6031746 C6.98412698,9.12102129 6.59326442,8.73015873 6.11111111,8.73015873 C5.6289578,8.73015873 5.23809524,9.12102129 5.23809524,9.6031746 Z M4.36507937,9.6031746 C4.36507937,8.6388679 5.1468044,7.85714286 6.11111111,7.85714286 C7.07541782,7.85714286 7.85714286,8.6388679 7.85714286,9.6031746 L7.85714286,9.93663698 C7.85714286,10.6462888 7.69191744,11.3461947 7.37455156,11.9809266 L7.1332559,12.4635179 C6.93967598,12.8506778 6.54396906,13.0952381 6.11111111,13.0952381 C5.67825317,13.0952381 5.28254624,12.8506778 5.08896632,12.4635179 L4.84767067,11.9809266 C4.53030478,11.3461947 4.36507937,10.6462888 4.36507937,9.93663698 L4.36507937,9.6031746 Z" id="Shape"></path>
                        </g>
                    </g>
                </g>
            </g>
        </g>
    </g>
</svg>