<?xml version="1.0" encoding="UTF-8"?>
<svg width="16px" height="12px" viewBox="0 0 16 12" version="1.1" xmlns="http://www.w3.org/2000/svg" xmlns:xlink="http://www.w3.org/1999/xlink">
    <!-- Generator: Sketch 52.5 (67469) - http://www.bohemiancoding.com/sketch -->
    <title>💚 Icon Copy 5</title>
    <desc>Created with Sketch.</desc>
    <g id="Page-1" stroke="none" stroke-width="1" fill="none" fill-rule="evenodd">
        <g id="banner" transform="translate(-844.000000, -443.000000)" fill="#000000">
            <g id="registro" transform="translate(-50.000000, -41.000000)">
                <g id="Form-Copy-2" transform="translate(833.000000, 181.000000)">
                    <g id="Icons-/-Line-/-Email" transform="translate(59.000000, 299.000000)">
                        <g id="mail" transform="translate(2.857143, 4.285714)">
                            <path d="M1.31910588,10.1045009 C1.4601561,10.1796807 1.61845957,10.2218368 1.78571404,10.2218368 L12.5000002,10.2218368 C12.6672552,10.2218368 12.8255591,10.1796805 12.9666097,10.1045002 L8.74616125,5.73509476 L7.36989637,6.98182877 C7.23801932,7.10129386 7.04769691,7.10129386 6.91581986,6.98182877 L5.539555,5.73509476 L1.31910588,10.1045009 Z M0.816496475,9.54628765 C0.819803689,9.5425849 0.823190652,9.53893769 0.826657295,9.5353487 L4.98371614,5.23157014 L0.844392092,1.48182954 C0.835365994,1.47365295 0.826798423,1.465091 0.81869286,1.4561832 C0.751764433,1.61003351 0.714285617,1.78234498 0.714285617,1.96428545 L0.714285617,9.0432655 C0.714285617,9.22320607 0.750945019,9.39372812 0.816496475,9.54628765 Z M13.4692185,9.54628616 C13.5347695,9.39372702 13.5714287,9.22320552 13.5714287,9.0432655 L13.5714287,1.96428545 C13.5714287,1.78234554 13.5339501,1.6100346 13.467022,1.45618465 C13.4589169,1.46509191 13.4503498,1.47365339 13.4413241,1.48182954 L9.30200011,5.23157014 L13.4590589,9.5353487 C13.4625251,9.53893722 13.4659117,9.54258395 13.4692185,9.54628616 Z M12.960306,0.899718918 C12.8208492,0.826626151 12.6647681,0.785714179 12.5000002,0.785714179 L1.78571404,0.785714179 C1.62094664,0.785714179 1.46486601,0.826625915 1.32540952,0.899718273 L7.14285811,6.16964231 L12.960306,0.899718918 Z M1.78571404,0 L12.5000002,0 C13.4862229,0 14.2857143,0.879440554 14.2857143,1.96428545 L14.2857143,9.0432655 C14.2857143,10.1281104 13.4862229,11.0075509 12.5000002,11.0075509 L1.78571404,11.0075509 C0.799491413,11.0075509 0,10.1281104 0,9.0432655 L0,1.96428545 C0,0.879440554 0.799491413,0 1.78571404,0 Z" id="Shape"></path>
                        </g>
                    </g>
                </g>
            </g>
        </g>
    </g>
</svg>