<?xml version="1.0" encoding="UTF-8"?>
<svg width="16px" height="16px" viewBox="0 0 16 16" version="1.1" xmlns="http://www.w3.org/2000/svg" xmlns:xlink="http://www.w3.org/1999/xlink">
    <!-- Generator: Sketch 52.5 (67469) - http://www.bohemiancoding.com/sketch -->
    <title>💚 Icon Copy 3</title>
    <desc>Created with Sketch.</desc>
    <g id="Page-1" stroke="none" stroke-width="1" fill="none" fill-rule="evenodd">
        <g id="banner" transform="translate(-844.000000, -311.000000)" fill="#000000">
            <g id="registro" transform="translate(-50.000000, -41.000000)">
                <g id="Form-Copy-2" transform="translate(833.000000, 181.000000)">
                    <g id="Icons-/-Line-/-User" transform="translate(59.000000, 169.000000)">
                        <g id="user" transform="translate(2.857143, 2.857143)">
                            <path d="M9.89093018,7.9827667 L12.9772387,9.3856342 C13.774101,9.74784437 14.2857143,10.542382 14.2857143,11.4177022 L14.2857143,12.0535714 C14.2857143,13.2863499 13.2863499,14.2857143 12.0535714,14.2857143 L2.23214286,14.2857143 C0.999364402,14.2857143 0,13.2863499 0,12.0535714 L0,11.4177022 C0,10.542382 0.51161333,9.74784437 1.30847557,9.3856342 L4.39478413,7.9827667 C3.35008146,7.1656575 2.67857143,5.89339143 2.67857143,4.46428571 C2.67857143,1.99872879 4.67730022,0 7.14285714,0 C9.60841402,0 11.6071429,1.99872879 11.6071429,4.46428571 C11.6071429,5.89339143 10.9356329,7.1656575 9.89093018,7.9827667 Z M5.32255878,8.54181768 L1.67794248,10.1984614 C1.19982514,10.4157875 0.892857143,10.8925101 0.892857143,11.4177022 L0.892857143,12.0535714 C0.892857143,12.7932385 1.49247579,13.3928571 2.23214286,13.3928571 L12.0535714,13.3928571 C12.7932385,13.3928571 13.3928571,12.7932385 13.3928571,12.0535714 L13.3928571,11.4177022 C13.3928571,10.8925101 13.0858891,10.4157875 12.6077718,10.1984614 L8.96315554,8.54181768 C8.40723696,8.7903692 7.79118652,8.92857143 7.14285714,8.92857143 C6.49452777,8.92857143 5.87847732,8.7903692 5.32255878,8.54181768 Z M7.14285714,8.03571429 C9.11530268,8.03571429 10.7142857,6.43673125 10.7142857,4.46428571 C10.7142857,2.49184018 9.11530268,0.892857143 7.14285714,0.892857143 C5.17041161,0.892857143 3.57142857,2.49184018 3.57142857,4.46428571 C3.57142857,6.43673125 5.17041161,8.03571429 7.14285714,8.03571429 Z" id="Shape"></path>
                        </g>
                    </g>
                </g>
            </g>
        </g>
    </g>
</svg>